<svg width="128" height="128" viewBox="0 0 128 128" fill="none" xmlns="http://www.w3.org/2000/svg">
<path d="M112 0H16C7.16344 0 0 7.16344 0 16V112C0 120.837 7.16344 128 16 128H112C120.837 128 128 120.837 128 112V16C128 7.16344 120.837 0 112 0Z" fill="#292522"/>
<path d="M93.4827 56.0214L93.1947 55.9041L93.152 55.5521C92.0427 48.8108 89.1733 43.2534 84.64 39.0081C79.0187 33.7494 71.712 30.8588 64.064 30.8588C56.416 30.8588 49.1093 33.7494 43.488 39.0081C38.944 43.2534 36.0853 48.8214 34.976 55.5628L34.9227 55.8614L34.6453 55.9681C30.6667 57.5361 27.2747 60.2348 24.8427 63.7761C22.3573 67.4028 21.0667 71.6588 21.12 76.0854C21.184 81.5468 23.3387 86.7201 27.168 90.6668C31.008 94.6134 36.1173 96.9068 41.568 97.1201C41.856 97.1308 42.144 97.1414 42.432 97.1414C47.328 97.1414 51.936 95.5308 55.744 92.4694C56.3307 92.0001 56.896 91.4561 57.4187 90.8481L77.0667 68.1388C79.4133 65.4721 82.0587 64.2134 85.376 64.1601C87.8507 64.1281 90.2613 64.8214 92.2773 66.2614C95.6053 68.6508 97.3973 72.3414 97.248 76.2881C97.0133 82.3468 92.096 87.2748 86.0373 87.4988C85.8773 87.4988 85.728 87.4988 85.568 87.4988C82.3787 87.4988 79.584 86.3148 76.6187 83.6908C76.3627 83.4561 75.9573 83.4774 75.7333 83.7441L70.1333 90.2188C69.92 90.4641 69.9307 90.8481 70.1653 91.0721C74.1653 94.9441 79.712 97.1414 85.5787 97.1414C85.7067 97.1414 85.8347 97.1414 85.952 97.1414C91.6693 97.0454 96.992 94.7414 100.939 90.6561C104.896 86.5601 107.008 81.1308 106.891 75.3921C106.72 66.8161 101.451 59.2214 93.4827 56.0321V56.0214ZM83.04 54.9228C77.6747 55.7334 73.3227 57.8454 70.112 61.2161L51.5627 82.6561C50.784 83.5521 49.9733 84.3521 49.1307 85.0348C47.4347 86.4214 45.9627 87.1361 44.1387 87.3921C37.2053 88.3521 30.8267 82.9974 30.7413 76.0001C30.6987 72.7041 31.904 69.5681 34.112 67.1788C36.3627 64.7468 39.424 63.3601 42.976 63.1148C43.3067 63.0934 43.5627 62.8374 43.5733 62.5068L43.6693 59.0081C44.096 48.5014 53.2373 39.9468 64.0533 39.9468C68.3413 39.9468 72.6613 41.3868 76.2133 43.9894C79.7867 46.6134 82.368 50.2614 83.4773 54.2614L83.6373 54.8374L83.0507 54.9228H83.04Z" fill="#FAE100"/>
</svg>
