<svg viewBox="0 0 256 221" xmlns="http://www.w3.org/2000/svg" preserveAspectRatio="xMidYMid">
  <path d="M89.17 6.1C86.87 2.33 82.79.03 78.38 0H12.8C5.73 0 0 5.73 0 12.8c0 2.41.68 4.78 1.95 6.83l16.88 24.8 84.42-18.28L89.17 6.1z" fill="#C9F4FF"/>
  <path d="M103.62 26.64c-2.33-3.76-6.43-6.07-10.85-6.1H27.43c-4.79-.22-9.3 2.27-11.67 6.44-2.37 4.17-2.19 9.31.42 13.31l18.83 29.87 87.22-13.65-18.65-29.87z" fill="#51B9FF"/>
  <path d="M34.26 68.94c-2.14-3.43-2.57-7.67-1.16-11.46 1.96-5 6.82-8.26 12.19-8.17h65.34c4.43.02 8.53 2.32 10.85 6.1l58.7 93.07c1.27 2.05 1.95 4.41 1.95 6.83.01 2.41-.66 4.77-1.95 6.83l-32.79 52c-2.36 3.7-6.45 5.95-10.85 5.95-4.4 0-8.49-2.25-10.85-5.95L34.26 68.94z" fill="#007BFC"/>
  <path d="M199.56 98.68c2.36 3.71 6.45 5.96 10.85 5.96 4.4 0 8.49-2.25 10.85-5.96l11.28-17.86 21.52-34.13c1.27-2.05 1.95-4.41 1.95-6.83-.01-2.41-.66-4.77-1.95-6.83L236.98 6.1C234.66 2.33 230.56.03 226.13 0h-65.58c-3.4 0-6.65 1.35-9.05 3.75-2.4 2.4-3.75 5.66-3.75 9.05.02 2.42.72 4.8 2.03 6.83l49.8 79.05z" fill="#007BFC"/>
</svg>